<?xml version="1.0" standalone="no"?>
<!DOCTYPE svg PUBLIC "-//W3C//DTD SVG 20010904//EN"
 "http://www.w3.org/TR/2001/REC-SVG-20010904/DTD/svg10.dtd">
<svg version="1.0" xmlns="http://www.w3.org/2000/svg"
 width="102.000000pt" height="102.000000pt" viewBox="0 0 102.000000 102.000000"
 preserveAspectRatio="xMidYMid meet">
<metadata>
Created by potrace 1.11, written by Peter Selinger 2001-2013
</metadata>
<g transform="translate(0.000000,102.000000) scale(0.100000,-0.100000)"
fill="#000000" stroke="none">
<path d="M330 483 c0 -181 4 -332 8 -338 10 -14 52 -15 53 -1 1 6 2 88 3 183
1 94 4 174 7 177 2 3 6 -9 7 -26 2 -18 8 -38 14 -45 6 -7 8 -16 5 -19 -3 -3 1
-24 9 -47 8 -23 12 -47 9 -55 -2 -7 0 -10 5 -7 6 3 10 -3 10 -13 0 -11 9 -22
19 -25 22 -5 48 19 46 43 0 8 3 17 7 20 4 3 10 23 14 44 3 21 8 48 10 60 3 11
8 35 10 51 6 33 24 58 25 35 0 -8 1 -48 2 -87 1 -40 4 -73 7 -73 5 0 6 -16 10
-137 2 -72 17 -92 54 -75 16 7 23 18 21 29 -2 10 -4 18 -5 18 -1 0 -3 32 -5
70 -1 39 -5 90 -9 115 -7 55 -15 155 -22 253 -2 39 -6 84 -8 100 -2 15 1 30 6
33 16 10 -9 30 -40 32 -34 2 -35 1 -53 -96 -7 -39 -16 -72 -19 -72 -3 0 -6
-10 -7 -22 -1 -13 -4 -34 -7 -48 -3 -14 -7 -37 -8 -52 -1 -15 -6 -24 -11 -21
-5 3 -6 -4 -2 -16 4 -12 2 -21 -4 -21 -6 0 -13 12 -17 27 -3 16 -11 46 -16 68
-6 22 -11 47 -13 55 -2 8 -8 29 -15 45 -6 17 -11 31 -10 33 1 1 -1 15 -4 30
-4 15 -8 38 -11 51 -6 33 -24 51 -51 51 l-24 0 0 -327z"/>
</g>
</svg>
